# xmcd
#
# Track frame offsets:
#	150
#	14745
#	30275
#	49977
#	65055
#	90461
#	109602
#	127201
#	146126
#	160039
#	177885
#
# Disc length: 2712 seconds
#
# Revision: 0
# Processed by: cddbd v1.5.2PL0 Copyright (c) Steve Scherf et al.
# Submitted via: audiograbber 1.83.01
#
DISCID=970a960b
DTITLE=Haunt - As Blue As Your Dying Eyes
DYEAR=2007
DGENRE=Country Folk
TTITLE0=Run Run Run
TTITLE1=Poisoner
TTITLE2=Dirty Little Heart
TTITLE3=Home
TTITLE4=War
TTITLE5=A Brighter Hole
TTITLE6=You Bring The Words
TTITLE7=Sing It
TTITLE8=Bound
TTITLE9=Love Song
TTITLE10=From The Ground
EXTD=
EXTT0=
EXTT1=
EXTT2=
EXTT3=
EXTT4=
EXTT5=
EXTT6=
EXTT7=
EXTT8=
EXTT9=
EXTT10=
PLAYORDER=
